<?xml version="1.0" encoding="utf-8"?>
<svg xmlns="http://www.w3.org/2000/svg" xmlns:xlink="http://www.w3.org/1999/xlink" style="margin: auto; background: none; display: block; shape-rendering: auto;" width="273px" height="273px" viewBox="0 0 100 100" preserveAspectRatio="xMidYMid">
<g transform="rotate(0 50 50)">
  <rect x="47" y="24" rx="0" ry="0" width="6" height="12" fill="#3c0f0f">
    <animate attributeName="opacity" values="1;0" keyTimes="0;1" dur="0.4761904761904763s" begin="-0.43650793650793657s" repeatCount="indefinite"></animate>
  </rect>
</g><g transform="rotate(30 50 50)">
  <rect x="47" y="24" rx="0" ry="0" width="6" height="12" fill="#f91a10">
    <animate attributeName="opacity" values="1;0" keyTimes="0;1" dur="0.4761904761904763s" begin="-0.3968253968253969s" repeatCount="indefinite"></animate>
  </rect>
</g><g transform="rotate(60 50 50)">
  <rect x="47" y="24" rx="0" ry="0" width="6" height="12" fill="#e46b43">
    <animate attributeName="opacity" values="1;0" keyTimes="0;1" dur="0.4761904761904763s" begin="-0.3571428571428572s" repeatCount="indefinite"></animate>
  </rect>
</g><g transform="rotate(90 50 50)">
  <rect x="47" y="24" rx="0" ry="0" width="6" height="12" fill="#edb195">
    <animate attributeName="opacity" values="1;0" keyTimes="0;1" dur="0.4761904761904763s" begin="-0.3174603174603175s" repeatCount="indefinite"></animate>
  </rect>
</g><g transform="rotate(120 50 50)">
  <rect x="47" y="24" rx="0" ry="0" width="6" height="12" fill="#2aa7c9">
    <animate attributeName="opacity" values="1;0" keyTimes="0;1" dur="0.4761904761904763s" begin="-0.27777777777777785s" repeatCount="indefinite"></animate>
  </rect>
</g><g transform="rotate(150 50 50)">
  <rect x="47" y="24" rx="0" ry="0" width="6" height="12" fill="#06628d">
    <animate attributeName="opacity" values="1;0" keyTimes="0;1" dur="0.4761904761904763s" begin="-0.23809523809523814s" repeatCount="indefinite"></animate>
  </rect>
</g><g transform="rotate(180 50 50)">
  <rect x="47" y="24" rx="0" ry="0" width="6" height="12" fill="#04284d">
    <animate attributeName="opacity" values="1;0" keyTimes="0;1" dur="0.4761904761904763s" begin="-0.19841269841269846s" repeatCount="indefinite"></animate>
  </rect>
</g><g transform="rotate(210 50 50)">
  <rect x="47" y="24" rx="0" ry="0" width="6" height="12" fill="#3c0f0f">
    <animate attributeName="opacity" values="1;0" keyTimes="0;1" dur="0.4761904761904763s" begin="-0.15873015873015875s" repeatCount="indefinite"></animate>
  </rect>
</g><g transform="rotate(240 50 50)">
  <rect x="47" y="24" rx="0" ry="0" width="6" height="12" fill="#f91a10">
    <animate attributeName="opacity" values="1;0" keyTimes="0;1" dur="0.4761904761904763s" begin="-0.11904761904761907s" repeatCount="indefinite"></animate>
  </rect>
</g><g transform="rotate(270 50 50)">
  <rect x="47" y="24" rx="0" ry="0" width="6" height="12" fill="#e46b43">
    <animate attributeName="opacity" values="1;0" keyTimes="0;1" dur="0.4761904761904763s" begin="-0.07936507936507937s" repeatCount="indefinite"></animate>
  </rect>
</g><g transform="rotate(300 50 50)">
  <rect x="47" y="24" rx="0" ry="0" width="6" height="12" fill="#edb195">
    <animate attributeName="opacity" values="1;0" keyTimes="0;1" dur="0.4761904761904763s" begin="-0.03968253968253969s" repeatCount="indefinite"></animate>
  </rect>
</g><g transform="rotate(330 50 50)">
  <rect x="47" y="24" rx="0" ry="0" width="6" height="12" fill="#2aa7c9">
    <animate attributeName="opacity" values="1;0" keyTimes="0;1" dur="0.4761904761904763s" begin="0s" repeatCount="indefinite"></animate>
  </rect>
</g>
<!-- [ldio] generated by https://loading.io/ --></svg>